<svg width="188" height="31" viewBox="0 0 188 31" fill="none" xmlns="http://www.w3.org/2000/svg">
<path d="M14.32 3.76V26.24C15.1733 26.7467 15.9467 27 16.64 27C17.4933 27 18.2267 26.6133 18.84 25.84C19.4533 25.04 19.9467 24.0133 20.32 22.76C20.72 21.48 21.0133 20.0267 21.2 18.4C21.3867 16.7733 21.48 15.12 21.48 13.44C21.48 11.7333 21.36 10.1733 21.12 8.76C20.9067 7.32 20.4933 6.09333 19.88 5.08C19.2933 4.04 18.4533 3.24 17.36 2.68C16.2933 2.12 14.92 1.84 13.24 1.84C11.9333 1.84 10.7467 2.01333 9.68 2.36C8.61333 2.70667 7.69333 3.22667 6.92 3.92C6.17333 4.58667 5.58667 5.42667 5.16 6.44C4.76 7.42666 4.56 8.57333 4.56 9.88C4.56 10.6533 4.62667 11.2933 4.76 11.8C4.89333 12.3067 5.04 12.7333 5.2 13.08C5.36 13.4267 5.50667 13.6933 5.64 13.88C5.8 14.0667 5.90667 14.2 5.96 14.28C4.36 14.28 3.08 13.9067 2.12 13.16C1.18667 12.4133 0.72 11.2133 0.72 9.56C0.72 8.25333 1.04 7.01333 1.68 5.84C2.32 4.66667 3.21333 3.65333 4.36 2.8C5.50667 1.94667 6.88 1.26667 8.48 0.76C10.08 0.253332 11.8533 -2.38419e-06 13.8 -2.38419e-06C16.2 -2.38419e-06 18.2533 0.386665 19.96 1.16C21.6667 1.93333 23.0533 2.98667 24.12 4.32C25.2133 5.65333 26 7.2 26.48 8.96C26.9867 10.72 27.24 12.6 27.24 14.6C27.24 16.4133 27.0533 18.2533 26.68 20.12C26.3067 21.9867 25.7733 23.68 25.08 25.2C24.3867 26.72 23.56 27.96 22.6 28.92C21.64 29.88 20.56 30.36 19.36 30.36C18.7467 30.36 18 30.2133 17.12 29.92C16.2667 29.6267 15.3333 29.1333 14.32 28.44V30H8.52V4.56L14.32 3.76ZM38.0413 9.8C39.8813 9.8 41.3479 10.3067 42.4413 11.32C43.5346 12.3067 44.2413 13.9067 44.5613 16.12H44.8413C45.2146 16.12 45.6279 16.0533 46.0813 15.92C46.5613 15.7867 47.0546 15.6133 47.5613 15.4C48.0679 15.1867 48.5613 14.9333 49.0413 14.64C49.5213 14.3467 49.9479 14.04 50.3212 13.72L50.9213 14.8C50.6279 15.2267 50.2546 15.6133 49.8013 15.96C49.3746 16.3067 48.8813 16.6267 48.3213 16.92C47.7613 17.1867 47.1746 17.4267 46.5613 17.64C45.9479 17.8267 45.3346 17.9733 44.7213 18.08C44.7479 18.2667 44.7613 18.4533 44.7613 18.64C44.7613 18.8 44.7613 18.9733 44.7613 19.16C44.7613 20.7067 44.6279 22.16 44.3613 23.52C44.0946 24.8533 43.6413 26.0267 43.0013 27.04C42.3879 28.0267 41.5879 28.8133 40.6013 29.4C39.6146 29.96 38.4013 30.24 36.9613 30.24C35.9746 30.24 35.0279 30.0933 34.1213 29.8C33.2413 29.48 32.4546 28.9733 31.7613 28.28C31.0679 27.56 30.5079 26.6267 30.0813 25.48C29.6813 24.3067 29.4813 22.88 29.4813 21.2C29.4813 20.0533 29.6013 18.8267 29.8413 17.52C30.0813 16.1867 30.5213 14.9467 31.1613 13.8C31.8013 12.6533 32.6679 11.7067 33.7613 10.96C34.8813 10.1867 36.3079 9.8 38.0413 9.8ZM38.0813 26.48C38.6413 26.48 39.1213 26.2933 39.5213 25.92C39.9479 25.52 40.2946 24.9867 40.5613 24.32C40.8279 23.6267 41.0146 22.8133 41.1213 21.88C41.2546 20.9467 41.3213 19.9333 41.3213 18.84V18.24C40.6546 18.1067 40.2279 17.8533 40.0412 17.48C39.8546 17.1067 39.7613 16.6933 39.7613 16.24C39.7613 15.68 39.8546 15.2533 40.0412 14.96C40.2279 14.6667 40.4679 14.4667 40.7613 14.36C40.4679 13.4533 40.1079 12.8667 39.6813 12.6C39.2813 12.3333 38.9346 12.2 38.6413 12.2C38.0546 12.2 37.5479 12.48 37.1213 13.04C36.7213 13.5733 36.3879 14.2667 36.1213 15.12C35.8546 15.9467 35.6546 16.8667 35.5213 17.88C35.4146 18.8933 35.3613 19.8667 35.3613 20.8C35.3613 22 35.4413 22.9733 35.6013 23.72C35.7879 24.4667 36.0146 25.04 36.2813 25.44C36.5479 25.84 36.8413 26.12 37.1613 26.28C37.4813 26.4133 37.7879 26.48 38.0813 26.48ZM57.3794 16.2C57.4327 15.9867 57.4594 15.8 57.4594 15.64C57.486 15.48 57.4994 15.2667 57.4994 15C57.4994 13.9067 57.3394 13.12 57.0194 12.64C56.726 12.16 56.3394 11.92 55.8594 11.92C55.326 11.92 54.8594 12.2 54.4594 12.76C54.086 13.2933 53.766 13.9867 53.4994 14.84C53.2594 15.6667 53.0727 16.6 52.9394 17.64C52.8327 18.68 52.7794 19.6933 52.7794 20.68C52.7794 21.9333 52.8594 22.96 53.0194 23.76C53.206 24.56 53.4727 25.1867 53.8194 25.64C54.166 26.0933 54.5927 26.4133 55.0994 26.6C55.6327 26.7867 56.2327 26.88 56.8994 26.88C57.6994 26.88 58.3927 26.7733 58.9794 26.56C59.5927 26.3467 60.1394 26.0667 60.6194 25.72C61.0994 25.3467 61.5394 24.92 61.9394 24.44C62.3394 23.9333 62.726 23.4 63.0994 22.84H64.4594C64.086 23.7733 63.6327 24.68 63.0994 25.56C62.5927 26.44 61.9527 27.2267 61.1794 27.92C60.4327 28.6133 59.5394 29.1733 58.4994 29.6C57.486 30.0267 56.2994 30.24 54.9394 30.24C53.8194 30.24 52.7794 30.08 51.8194 29.76C50.8594 29.4133 50.0194 28.88 49.2994 28.16C48.606 27.4133 48.0594 26.4533 47.6594 25.28C47.286 24.1067 47.0994 22.6933 47.0994 21.04C47.0994 19.92 47.206 18.7067 47.4194 17.4C47.6594 16.0667 48.086 14.84 48.6994 13.72C49.3127 12.6 50.1394 11.6667 51.1794 10.92C52.246 10.1733 53.6194 9.8 55.2994 9.8C56.3394 9.8 57.1927 9.94667 57.8594 10.24C58.5527 10.5333 59.0994 10.9067 59.4994 11.36C59.8994 11.7867 60.1794 12.2667 60.3394 12.8C60.4994 13.3067 60.5794 13.8 60.5794 14.28C60.5794 14.9733 60.4327 15.5467 60.1394 16C59.8727 16.4533 59.4994 16.68 59.0194 16.68C58.806 16.68 58.5527 16.64 58.2594 16.56C57.966 16.48 57.6727 16.36 57.3794 16.2ZM68.8509 3.68V10H71.2909V11.6H68.8509V23.6C68.8509 24.72 68.9976 25.4667 69.2909 25.84C69.6109 26.1867 70.1576 26.36 70.9309 26.36C71.7043 26.36 72.3443 26.0267 72.8509 25.36C73.3843 24.6933 73.6909 23.8533 73.7709 22.84H75.4509C75.2376 24.4667 74.8643 25.7733 74.3309 26.76C73.7976 27.72 73.1976 28.4667 72.5309 29C71.8643 29.5067 71.1843 29.84 70.4909 30C69.7976 30.16 69.1843 30.24 68.6509 30.24C66.5976 30.24 65.1576 29.68 64.3309 28.56C63.5043 27.4133 63.0909 25.9067 63.0909 24.04V11.6H61.8109V10H63.0909V4.48L68.8509 3.68ZM81.635 9.8C83.475 9.8 84.9417 10.3067 86.035 11.32C87.1283 12.3067 87.835 13.9067 88.155 16.12H88.435C88.8083 16.12 89.2217 16.0533 89.675 15.92C90.155 15.7867 90.6483 15.6133 91.155 15.4C91.6617 15.1867 92.155 14.9333 92.635 14.64C93.115 14.3467 93.5417 14.04 93.915 13.72L94.515 14.8C94.2217 15.2267 93.8483 15.6133 93.395 15.96C92.9683 16.3067 92.475 16.6267 91.915 16.92C91.355 17.1867 90.7683 17.4267 90.155 17.64C89.5417 17.8267 88.9283 17.9733 88.315 18.08C88.3417 18.2667 88.355 18.4533 88.355 18.64C88.355 18.8 88.355 18.9733 88.355 19.16C88.355 20.7067 88.2217 22.16 87.955 23.52C87.6883 24.8533 87.235 26.0267 86.595 27.04C85.9817 28.0267 85.1817 28.8133 84.195 29.4C83.2083 29.96 81.995 30.24 80.555 30.24C79.5683 30.24 78.6217 30.0933 77.715 29.8C76.835 29.48 76.0483 28.9733 75.355 28.28C74.6617 27.56 74.1017 26.6267 73.675 25.48C73.275 24.3067 73.075 22.88 73.075 21.2C73.075 20.0533 73.195 18.8267 73.435 17.52C73.675 16.1867 74.115 14.9467 74.755 13.8C75.395 12.6533 76.2617 11.7067 77.355 10.96C78.475 10.1867 79.9017 9.8 81.635 9.8ZM81.675 26.48C82.235 26.48 82.715 26.2933 83.115 25.92C83.5417 25.52 83.8883 24.9867 84.155 24.32C84.4217 23.6267 84.6083 22.8133 84.715 21.88C84.8483 20.9467 84.915 19.9333 84.915 18.84V18.24C84.2483 18.1067 83.8217 17.8533 83.635 17.48C83.4483 17.1067 83.355 16.6933 83.355 16.24C83.355 15.68 83.4483 15.2533 83.635 14.96C83.8217 14.6667 84.0617 14.4667 84.355 14.36C84.0617 13.4533 83.7017 12.8667 83.275 12.6C82.875 12.3333 82.5283 12.2 82.235 12.2C81.6483 12.2 81.1417 12.48 80.715 13.04C80.315 13.5733 79.9817 14.2667 79.715 15.12C79.4483 15.9467 79.2483 16.8667 79.115 17.88C79.0083 18.8933 78.955 19.8667 78.955 20.8C78.955 22 79.035 22.9733 79.195 23.72C79.3817 24.4667 79.6083 25.04 79.875 25.44C80.1417 25.84 80.435 26.12 80.755 26.28C81.075 26.4133 81.3817 26.48 81.675 26.48ZM97.0931 10V12.48C97.6798 11.7867 98.3331 11.1733 99.0531 10.64C99.7731 10.08 100.56 9.8 101.413 9.8C101.92 9.8 102.373 9.90667 102.773 10.12C103.2 10.3333 103.56 10.6133 103.853 10.96C104.173 11.3067 104.413 11.6933 104.573 12.12C104.76 12.52 104.853 12.9333 104.853 13.36C104.853 13.9467 104.666 14.4933 104.293 15C103.946 15.48 103.36 15.72 102.533 15.72C101.92 15.72 101.493 15.5867 101.253 15.32C101.013 15.0533 100.826 14.7733 100.693 14.48C100.56 14.16 100.413 13.8667 100.253 13.6C100.12 13.3333 99.8665 13.2 99.4931 13.2C99.0931 13.2 98.6931 13.36 98.2931 13.68C97.9198 13.9733 97.5198 14.3467 97.0931 14.8V30H91.3331V10H97.0931ZM131.25 13.2422V17.5977H119.434V13.2422H131.25ZM120.801 1.5625V30H115.566V1.5625H120.801ZM135.176 1.5625V30H129.98V1.5625H135.176ZM141.992 1.5625H146.66L152.852 21.875L158.984 1.5625H163.223L154.785 30H150.879L141.992 1.5625ZM140.176 1.5625H144.57L145.254 20V30H140.176V1.5625ZM161.074 1.5625H165.488V30H160.41V20L161.074 1.5625ZM182.617 22.5977C182.617 22.0378 182.559 21.543 182.441 21.1133C182.337 20.6706 182.129 20.2669 181.816 19.9023C181.504 19.5378 181.055 19.1797 180.469 18.8281C179.883 18.4635 179.128 18.0924 178.203 17.7148C177.109 17.2721 176.074 16.8034 175.098 16.3086C174.121 15.8008 173.249 15.2148 172.48 14.5508C171.712 13.8867 171.107 13.1055 170.664 12.207C170.234 11.3086 170.02 10.2604 170.02 9.0625C170.02 7.89062 170.228 6.82292 170.645 5.85938C171.074 4.88281 171.68 4.04948 172.461 3.35938C173.242 2.65625 174.167 2.11589 175.234 1.73828C176.315 1.36068 177.507 1.17188 178.809 1.17188C180.645 1.17188 182.22 1.55599 183.535 2.32422C184.85 3.09245 185.866 4.13411 186.582 5.44922C187.298 6.76432 187.656 8.2487 187.656 9.90234H182.441C182.441 9.04297 182.311 8.28125 182.051 7.61719C181.803 6.9401 181.406 6.41276 180.859 6.03516C180.312 5.65755 179.609 5.46875 178.75 5.46875C177.943 5.46875 177.279 5.63151 176.758 5.95703C176.237 6.26953 175.853 6.69922 175.605 7.24609C175.358 7.77995 175.234 8.39193 175.234 9.08203C175.234 9.57682 175.345 10.026 175.566 10.4297C175.801 10.8203 176.12 11.1784 176.523 11.5039C176.927 11.8294 177.415 12.1419 177.988 12.4414C178.574 12.7279 179.225 13.0078 179.941 13.2812C181.257 13.776 182.409 14.3229 183.398 14.9219C184.388 15.5078 185.208 16.1719 185.859 16.9141C186.523 17.6432 187.018 18.4701 187.344 19.3945C187.669 20.319 187.832 21.3737 187.832 22.5586C187.832 23.7305 187.63 24.7982 187.227 25.7617C186.823 26.7253 186.237 27.5521 185.469 28.2422C184.701 28.9323 183.77 29.4661 182.676 29.8438C181.595 30.2083 180.391 30.3906 179.062 30.3906C177.786 30.3906 176.569 30.2083 175.41 29.8438C174.264 29.4661 173.249 28.8997 172.363 28.1445C171.478 27.3893 170.781 26.4388 170.273 25.293C169.766 24.1341 169.512 22.7734 169.512 21.2109H174.727C174.727 22.0833 174.824 22.8385 175.02 23.4766C175.215 24.1016 175.508 24.6094 175.898 25C176.289 25.3776 176.758 25.6576 177.305 25.8398C177.852 26.0091 178.47 26.0938 179.16 26.0938C179.98 26.0938 180.645 25.944 181.152 25.6445C181.66 25.3451 182.031 24.9349 182.266 24.4141C182.5 23.8802 182.617 23.2747 182.617 22.5977Z" fill="white"/>
</svg>
